<svg width="64" height="64" viewBox="0 0 64 64" fill="none" xmlns="http://www.w3.org/2000/svg">
<g clip-path="url(#clip0_244_1501)">
<g filter="url(#filter0_i_244_1501)">
<path d="M33.3461 11.1652C32.4081 9.07605 34.2041 6.83662 36.414 7.22675C48.2163 9.31012 57.182 19.6114 57.182 32.0125C57.182 45.9131 45.913 57.1821 32.0123 57.1821C19.6112 57.1821 9.31 48.2164 7.22663 36.4141C6.83647 34.2039 9.07609 32.4085 11.1651 33.3462C13.2568 34.2853 15.578 34.8091 18.0291 34.8091C27.2964 34.8091 34.809 27.2965 34.809 18.0292C34.809 15.5781 34.2852 13.2569 33.3461 11.1652Z" fill="url(#paint0_linear_244_1501)"/>
</g>
<g filter="url(#filter1_i_244_1501)">
<path d="M12.6945 19.1472L12.8857 19.5652C13.704 21.2581 14.9932 22.6791 16.598 23.658L16.896 23.8326C17.0345 23.9105 17.0345 24.1099 16.896 24.1878L16.598 24.3624C14.9932 25.3413 13.704 26.7623 12.8857 28.4552L12.6945 28.8731C12.6195 29.0417 12.3802 29.0417 12.3053 28.8731L12.114 28.4552C11.2957 26.7623 10.0066 25.3413 8.40174 24.3624L8.10372 24.1878C7.96527 24.1099 7.96527 23.9105 8.10372 23.8326L8.40174 23.658C10.0066 22.6791 11.2957 21.2581 12.114 19.5652L12.3053 19.1472C12.3802 18.9786 12.6195 18.9786 12.6945 19.1472ZM21.1899 4.57213C21.3091 4.30375 21.6901 4.30375 21.8093 4.57213L22.1137 5.23741C23.4163 7.93207 25.4682 10.194 28.0229 11.7522L28.4972 12.0301C28.7174 12.1541 28.7174 12.4714 28.4972 12.5954L28.0229 12.8733C25.4682 14.4315 23.4163 16.6934 22.1137 19.3881C22.0076 19.6077 21.9084 19.8305 21.8093 20.0534C21.6901 20.3217 21.3091 20.3217 21.1899 20.0534L20.8855 19.3881C19.5829 16.6934 17.531 14.4315 14.9764 12.8733L14.5021 12.5954C14.2817 12.4714 14.2817 12.1541 14.5021 12.0301L14.9764 11.7522C17.531 10.194 19.5829 7.93207 20.8855 5.23741L21.1899 4.57213Z" fill="url(#paint1_linear_244_1501)"/>
</g>
</g>
<defs>
<filter id="filter0_i_244_1501" x="7.18201" y="7.18213" width="54.1949" height="54.1949" filterUnits="userSpaceOnUse" color-interpolation-filters="sRGB">
<feFlood flood-opacity="0" result="BackgroundImageFix"/>
<feBlend mode="normal" in="SourceGraphic" in2="BackgroundImageFix" result="shape"/>
<feColorMatrix in="SourceAlpha" type="matrix" values="0 0 0 0 0 0 0 0 0 0 0 0 0 0 0 0 0 0 127 0" result="hardAlpha"/>
<feOffset dx="4.19494" dy="4.19494"/>
<feGaussianBlur stdDeviation="4.19494"/>
<feComposite in2="hardAlpha" operator="arithmetic" k2="-1" k3="1"/>
<feColorMatrix type="matrix" values="0 0 0 0 0.650967 0 0 0 0 0.522083 0 0 0 0 0.86125 0 0 0 0.7 0"/>
<feBlend mode="normal" in2="shape" result="effect1_innerShadow_244_1501"/>
</filter>
<filter id="filter1_i_244_1501" x="7.99988" y="4.37085" width="20.6625" height="24.6287" filterUnits="userSpaceOnUse" color-interpolation-filters="sRGB">
<feFlood flood-opacity="0" result="BackgroundImageFix"/>
<feBlend mode="normal" in="SourceGraphic" in2="BackgroundImageFix" result="shape"/>
<feColorMatrix in="SourceAlpha" type="matrix" values="0 0 0 0 0 0 0 0 0 0 0 0 0 0 0 0 0 0 127 0" result="hardAlpha"/>
<feOffset/>
<feGaussianBlur stdDeviation="1.125"/>
<feComposite in2="hardAlpha" operator="arithmetic" k2="-1" k3="1"/>
<feColorMatrix type="matrix" values="0 0 0 0 0.650967 0 0 0 0 0.522083 0 0 0 0 0.86125 0 0 0 0.7 0"/>
<feBlend mode="normal" in2="shape" result="effect1_innerShadow_244_1501"/>
</filter>
<linearGradient id="paint0_linear_244_1501" x1="32.182" y1="7.18213" x2="32.182" y2="57.1821" gradientUnits="userSpaceOnUse">
<stop stop-color="#A3A9DF"/>
<stop offset="0.853177" stop-color="#1F2FBC"/>
</linearGradient>
<linearGradient id="paint1_linear_244_1501" x1="18.3311" y1="4.37085" x2="18.3311" y2="28.9995" gradientUnits="userSpaceOnUse">
<stop stop-color="#A3A9DF"/>
<stop offset="0.710722" stop-color="#1F2FBC"/>
</linearGradient>
<clipPath id="clip0_244_1501">
<rect width="64" height="64" fill="white"/>
</clipPath>
</defs>
</svg>
