<svg width="14" height="18" viewBox="0 0 14 18" fill="none" xmlns="http://www.w3.org/2000/svg">
<path d="M7 17.3078C5.06 17.3078 3.40833 16.6391 2.045 15.3018C0.681667 13.9644 0 12.3364 0 10.4178C0 9.50244 0.185 8.62644 0.555 7.78977C0.925 6.95311 1.42067 6.20644 2.042 5.54977L7 0.691772L11.958 5.54977C12.58 6.20644 13.0757 6.95311 13.445 7.78977C13.8143 8.62644 13.9993 9.50411 14 10.4228C14 12.3441 13.3183 13.9721 11.955 15.3068C10.5917 16.6414 8.94 17.3084 7 17.3078ZM7 16.3078C8.66667 16.3078 10.0833 15.7401 11.25 14.6048C12.4167 13.4694 13 12.0754 13 10.4228C13 9.63811 12.85 8.89077 12.55 8.18077C12.25 7.47077 11.8167 6.84911 11.25 6.31577L7 2.10777L2.75 6.31577C2.18333 6.84977 1.75 7.47144 1.45 8.18077C1.15 8.89011 1 9.63744 1 10.4228C1 12.0761 1.58333 13.4701 2.75 14.6048C3.91667 15.7394 5.33333 16.3071 7 16.3078Z" fill="#A6A3A3"/>
</svg>
