<svg width="18" height="20" viewBox="0 0 18 20" fill="none" xmlns="http://www.w3.org/2000/svg">
<path fill-rule="evenodd" clip-rule="evenodd" d="M5.00018 -0.000488277C5.76539 -0.000530903 6.5017 0.291837 7.05844 0.816795C7.61519 1.34175 7.95029 2.05962 7.99518 2.82351L8.00018 2.99951V3.56751C8.16888 3.47997 8.35903 3.44232 8.54836 3.45897C8.73769 3.47562 8.91835 3.54588 9.06918 3.66151L9.16818 3.74851C9.33191 3.9091 9.43546 4.12108 9.46148 4.34893C9.48751 4.57678 9.43443 4.80665 9.31114 5.00003C9.18785 5.1934 9.00185 5.33852 8.78429 5.41107C8.56674 5.48362 8.33086 5.47918 8.11618 5.39851L8.00018 5.34751V7.85851C8.00685 7.90518 8.01018 7.95251 8.01018 8.00051L8.00718 8.07251L8.00018 8.14251V10.6475C8.20201 10.5386 8.43514 10.5024 8.66051 10.5449C8.88587 10.5874 9.08976 10.7061 9.23802 10.8811C9.38627 11.0561 9.46988 11.2767 9.47483 11.506C9.47977 11.7353 9.40576 11.9593 9.26518 12.1405L9.17218 12.2445C9.70729 13.0547 9.99491 14.0032 9.99993 14.9742C10.005 15.9452 9.72715 16.8966 9.20045 17.7123C8.67374 18.528 7.92092 19.1727 7.03391 19.5677C6.1469 19.9626 5.16408 20.0908 4.20544 19.9365C3.2468 19.7822 2.35383 19.3521 1.63556 18.6988C0.917284 18.0454 0.404787 17.197 0.160641 16.2573C-0.0835051 15.3175 -0.0487357 14.3269 0.260704 13.4066C0.570144 12.4862 1.14086 11.6759 1.90318 11.0745C1.92926 11.0545 1.95277 11.0313 1.97318 11.0055L2.00018 10.9555V2.99951C2.00018 2.20386 2.31625 1.4408 2.87886 0.878191C3.44147 0.315582 4.20453 -0.000488277 5.00018 -0.000488277ZM5.00018 1.99951C4.75525 1.99954 4.51884 2.08947 4.33581 2.25223C4.15277 2.41499 4.03584 2.63926 4.00718 2.88251L4.00018 2.99951V10.9575C4.00018 11.6325 3.66318 12.1835 3.25618 12.5475L3.14318 12.6435C2.65986 13.0244 2.30536 13.5447 2.12774 14.1339C1.95012 14.7231 1.95799 15.3526 2.15027 15.9372C2.34254 16.5217 2.70993 17.033 3.20262 17.4017C3.69531 17.7704 4.28946 17.9787 4.90451 17.9983C5.51957 18.0179 6.12577 17.8478 6.64093 17.5113C7.15609 17.1747 7.55529 16.6878 7.78439 16.1167C8.01349 15.5456 8.06142 14.9178 7.92168 14.3185C7.78193 13.7192 7.46128 13.1774 7.00318 12.7665L6.85718 12.6435C6.43918 12.3135 6.06718 11.7905 6.00818 11.1385L6.00018 10.9595V2.99951C6.00018 2.7343 5.89482 2.47994 5.70729 2.29241C5.51975 2.10487 5.2654 1.99951 5.00018 1.99951ZM12.0002 11.9895C12.2453 11.9896 12.4818 12.0796 12.6649 12.2426C12.8479 12.4056 12.9648 12.6301 12.9932 12.8735L13.0002 12.9995C12.9999 13.2544 12.9023 13.4995 12.7273 13.6849C12.5524 13.8702 12.3132 13.9817 12.0588 13.9967C11.8043 14.0116 11.5538 13.9288 11.3583 13.7652C11.1629 13.6017 11.0373 13.3696 11.0072 13.1165L11.0002 12.9895C11.0002 12.7243 11.1055 12.4699 11.2931 12.2824C11.4806 12.0949 11.735 11.9895 12.0002 11.9895ZM16.2402 10.8195C16.422 10.9983 16.5287 11.2397 16.5384 11.4945C16.5481 11.7493 16.4601 11.9982 16.2924 12.1902C16.1247 12.3823 15.89 12.5031 15.6363 12.5279C15.3825 12.5526 15.1288 12.4795 14.9272 12.3235L14.8252 12.2335C14.643 12.0449 14.5422 11.7923 14.5445 11.5301C14.5468 11.2679 14.652 11.0171 14.8374 10.8317C15.0228 10.6463 15.2736 10.5411 15.5358 10.5388C15.798 10.5366 16.0516 10.6374 16.2402 10.8195ZM12.0002 4.99951C12.7958 4.99951 13.5589 5.31558 14.1215 5.87819C14.6841 6.4408 15.0002 7.20386 15.0002 7.99951C15.0002 8.79516 14.6841 9.55822 14.1215 10.1208C13.5589 10.6834 12.7958 10.9995 12.0002 10.9995C11.2045 10.9995 10.4415 10.6834 9.87886 10.1208C9.31625 9.55822 9.00018 8.79516 9.00018 7.99951C9.00018 7.20386 9.31625 6.4408 9.87886 5.87819C10.4415 5.31558 11.2045 4.99951 12.0002 4.99951ZM12.0002 6.99951C11.735 6.99951 11.4806 7.10487 11.2931 7.29241C11.1055 7.47994 11.0002 7.7343 11.0002 7.99951C11.0002 8.26473 11.1055 8.51908 11.2931 8.70662C11.4806 8.89415 11.735 8.99951 12.0002 8.99951C12.2654 8.99951 12.5198 8.89415 12.7073 8.70662C12.8948 8.51908 13.0002 8.26473 13.0002 7.99951C13.0002 7.7343 12.8948 7.47994 12.7073 7.29241C12.5198 7.10487 12.2654 6.99951 12.0002 6.99951ZM17.0002 6.99951C17.2551 6.99979 17.5002 7.09739 17.6856 7.27236C17.8709 7.44733 17.9824 7.68646 17.9974 7.94091C18.0123 8.19535 17.9295 8.44589 17.7659 8.64134C17.6023 8.8368 17.3703 8.96241 17.1172 8.99251L16.9902 8.99951C16.7353 8.99923 16.4902 8.90163 16.3048 8.72666C16.1195 8.55169 16.0079 8.31256 15.993 8.05812C15.9781 7.80368 16.0609 7.55313 16.2244 7.35768C16.388 7.16223 16.6201 7.03662 16.8732 7.00651L17.0002 6.99951ZM16.2462 3.75551C16.4184 3.9277 16.5218 4.1568 16.5371 4.39983C16.5524 4.64286 16.4784 4.88311 16.3292 5.07551L16.2392 5.17651C16.0592 5.35586 15.8177 5.45999 15.5638 5.46774C15.3098 5.47549 15.0625 5.3863 14.8719 5.21826C14.6813 5.05023 14.5619 4.81596 14.5378 4.56304C14.5137 4.31011 14.5868 4.0575 14.7422 3.85651L14.8322 3.75651C15.0197 3.56904 15.274 3.46373 15.5392 3.46373C15.8043 3.46373 16.0587 3.56804 16.2462 3.75551ZM12.0002 1.98951C12.2453 1.98957 12.4818 2.07964 12.6649 2.2426C12.8479 2.40556 12.9648 2.63008 12.9932 2.87351L13.0002 2.99951C12.9999 3.25439 12.9023 3.49954 12.7273 3.68488C12.5524 3.87022 12.3132 3.98175 12.0588 3.99668C11.8043 4.01162 11.5538 3.92884 11.3583 3.76525C11.1629 3.60166 11.0373 3.36961 11.0072 3.11651L11.0002 2.98951C11.0002 2.72429 11.1055 2.46994 11.2931 2.2824C11.4806 2.09487 11.735 1.98951 12.0002 1.98951Z" fill="#A6A3A3"/>
</svg>
