<svg width="18" height="15" viewBox="0 0 18 15" fill="none" xmlns="http://www.w3.org/2000/svg">
<path d="M8.43975 0C7.53014 0.000424078 6.64874 0.300767 5.94531 0.849997C5.24188 1.39923 4.7598 2.16346 4.581 3.01286L4.51687 3.32357C4.48027 3.52954 4.52932 3.74098 4.65362 3.91309C4.77793 4.0852 4.96773 4.20444 5.18278 4.24554C5.39783 4.28665 5.62123 4.24638 5.80564 4.13327C5.99005 4.02016 6.12096 3.84311 6.17063 3.63964L6.237 3.32786C6.34784 2.80824 6.65722 2.34628 7.10521 2.03147C7.55321 1.71666 8.10794 1.57139 8.66196 1.62381C9.21598 1.67622 9.72986 1.92259 10.1041 2.3152C10.4783 2.7078 10.6862 3.2187 10.6875 3.74893C10.6876 4.03042 10.6296 4.30919 10.5166 4.56929C10.4035 4.8294 10.2378 5.06575 10.0289 5.26485C9.81994 5.46395 9.57185 5.62188 9.2988 5.72964C9.02574 5.8374 8.73307 5.89286 8.4375 5.89286H0.84375C0.619974 5.89286 0.405362 5.97752 0.247129 6.12822C0.0888947 6.27892 0 6.48331 0 6.69643C0 6.90955 0.0888947 7.11394 0.247129 7.26464C0.405362 7.41534 0.619974 7.5 0.84375 7.5H8.4375C9.4655 7.47688 10.4432 7.07178 11.1618 6.37126C11.8804 5.67075 12.2828 4.73037 12.2831 3.75105C12.2834 2.77172 11.8816 1.83112 11.1634 1.13022C10.4452 0.429312 9.46774 0.0236833 8.43975 0ZM15.2438 5.35714C14.7322 5.35738 14.2308 5.4932 13.7956 5.74941C13.3605 6.00563 13.0089 6.37211 12.78 6.80786L12.7463 6.87214C12.6909 6.96692 12.6563 7.07139 12.6445 7.17924C12.6328 7.28709 12.644 7.3961 12.6776 7.4997C12.7112 7.6033 12.7665 7.69936 12.8401 7.78208C12.9137 7.8648 13.0042 7.93247 13.106 7.98102C13.2078 8.02957 13.3188 8.058 13.4325 8.06459C13.5461 8.07117 13.66 8.05579 13.7673 8.01935C13.8745 7.98292 13.9729 7.92619 14.0565 7.85259C14.1401 7.77899 14.2072 7.69003 14.2537 7.59107L14.2886 7.52678C14.3965 7.32218 14.5736 7.15819 14.7914 7.06129C15.0092 6.9644 15.2549 6.94026 15.4889 6.99278C15.7229 7.0453 15.9315 7.1714 16.0809 7.35073C16.2303 7.53006 16.3119 7.75213 16.3125 7.98107V8.03571C16.3125 8.31987 16.194 8.5924 15.983 8.79333C15.772 8.99426 15.4859 9.10714 15.1875 9.10714H0.84375C0.619974 9.10714 0.405362 9.1918 0.247129 9.3425C0.0888947 9.4932 0 9.69759 0 9.91071C0 10.1238 0.0888947 10.3282 0.247129 10.4789C0.405362 10.6296 0.619974 10.7143 0.84375 10.7143H11.6719C11.9329 10.7147 12.1831 10.8139 12.3674 10.99C12.5517 11.1661 12.655 11.4048 12.6546 11.6534C12.6541 11.902 12.55 12.1403 12.3651 12.3158C12.1801 12.4913 11.9296 12.5897 11.6685 12.5893C11.5056 12.5896 11.345 12.5517 11.2012 12.4788C11.0573 12.4059 10.9346 12.3003 10.8439 12.1714L10.8259 12.1457C10.7002 11.9712 10.5073 11.8509 10.2891 11.811C10.0709 11.7711 9.84492 11.8148 9.66033 11.9327C9.47573 12.0505 9.34739 12.2329 9.30317 12.4403C9.25894 12.6477 9.30241 12.8633 9.42412 13.0404L9.44212 13.065C9.68699 13.4133 10.0182 13.6988 10.4066 13.8962C10.7949 14.0935 11.2283 14.1967 11.6685 14.1964C12.1045 14.1964 12.5339 14.0948 12.9193 13.9006C13.3047 13.7064 13.6344 13.4254 13.8797 13.0821C14.125 12.7389 14.2785 12.3437 14.3269 11.931C14.3752 11.5183 14.3169 11.1006 14.157 10.7143H15.1875C15.9334 10.7143 16.6488 10.4321 17.1762 9.92975C17.7037 9.42742 18 8.74612 18 8.03571V7.98214C18 7.28595 17.7096 6.61827 17.1927 6.12599C16.6758 5.6337 15.9748 5.35714 15.2438 5.35714ZM2.25 2.14286C2.54837 2.14286 2.83452 2.02997 3.0455 1.82904C3.25647 1.62811 3.375 1.35559 3.375 1.07143C3.375 0.787268 3.25647 0.514746 3.0455 0.313814C2.83452 0.112882 2.54837 0 2.25 0C1.95163 0 1.66548 0.112882 1.4545 0.313814C1.24353 0.514746 1.125 0.787268 1.125 1.07143C1.125 1.35559 1.24353 1.62811 1.4545 1.82904C1.66548 2.02997 1.95163 2.14286 2.25 2.14286ZM6.75 13.9286C6.75 14.2127 6.63147 14.4853 6.4205 14.6862C6.20952 14.8871 5.92337 15 5.625 15C5.32663 15 5.04048 14.8871 4.8295 14.6862C4.61853 14.4853 4.5 14.2127 4.5 13.9286C4.5 13.6444 4.61853 13.3719 4.8295 13.171C5.04048 12.97 5.32663 12.8571 5.625 12.8571C5.92337 12.8571 6.20952 12.97 6.4205 13.171C6.63147 13.3719 6.75 13.6444 6.75 13.9286ZM15.75 3.21429C16.0484 3.21429 16.3345 3.1014 16.5455 2.90047C16.7565 2.69954 16.875 2.42702 16.875 2.14286C16.875 1.8587 16.7565 1.58617 16.5455 1.38524C16.3345 1.18431 16.0484 1.07143 15.75 1.07143C15.4516 1.07143 15.1655 1.18431 14.9545 1.38524C14.7435 1.58617 14.625 1.8587 14.625 2.14286C14.625 2.42702 14.7435 2.69954 14.9545 2.90047C15.1655 3.1014 15.4516 3.21429 15.75 3.21429Z" fill="#A6A3A3"/>
</svg>
