<svg width="23" height="15" viewBox="0 0 23 15" fill="none" xmlns="http://www.w3.org/2000/svg">
<path d="M11.5 12C12.75 12 13.8127 11.5627 14.688 10.688C15.5633 9.81333 16.0007 8.75067 16 7.5C15.9993 6.24933 15.562 5.187 14.688 4.313C13.814 3.439 12.7513 3.00133 11.5 3C10.2487 2.99867 9.18633 3.43633 8.313 4.313C7.43967 5.18967 7.002 6.252 7 7.5C6.998 8.748 7.43567 9.81067 8.313 10.688C9.19033 11.5653 10.2527 12.0027 11.5 12ZM11.5 10.2C10.75 10.2 10.1127 9.93733 9.588 9.412C9.06333 8.88667 8.80067 8.24933 8.8 7.5C8.79933 6.75067 9.062 6.11333 9.588 5.588C10.114 5.06267 10.7513 4.8 11.5 4.8C12.2487 4.8 12.8863 5.06267 13.413 5.588C13.9397 6.11333 14.202 6.75067 14.2 7.5C14.198 8.24933 13.9357 8.887 13.413 9.413C12.8903 9.939 12.2527 10.2013 11.5 10.2ZM11.5 15C9.06667 15 6.85 14.321 4.85 12.963C2.85 11.605 1.4 9.784 0.5 7.5C1.4 5.21667 2.85 3.396 4.85 2.038C6.85 0.680001 9.06667 0.000667157 11.5 4.90196e-07C13.9333 -0.000666176 16.15 0.678667 18.15 2.038C20.15 3.39733 21.6 5.218 22.5 7.5C21.6 9.78333 20.15 11.6043 18.15 12.963C16.15 14.3217 13.9333 15.0007 11.5 15ZM11.5 13C13.3833 13 15.1127 12.5043 16.688 11.513C18.2633 10.5217 19.4673 9.184 20.3 7.5C19.4667 5.81667 18.2623 4.47933 16.687 3.488C15.1117 2.49667 13.3827 2.00067 11.5 2C9.61733 1.99933 7.88833 2.49533 6.313 3.488C4.73767 4.48067 3.53333 5.818 2.7 7.5C3.53333 9.18333 4.73767 10.521 6.313 11.513C7.88833 12.505 9.61733 13.0007 11.5 13Z" fill="#A6A3A3"/>
</svg>
